<?xml version="1.0" encoding="utf-8"?>
<!-- Generator: Adobe Illustrator 25.2.0, SVG Export Plug-In . SVG Version: 6.00 Build 0)  -->
<svg version="1.1" id="Layer_1" xmlns="http://www.w3.org/2000/svg" xmlns:xlink="http://www.w3.org/1999/xlink" x="0px" y="0px"
	 viewBox="0 0 204.3 203.1" style="enable-background:new 0 0 204.3 203.1;" xml:space="preserve">
<style type="text/css">
	.st0{fill:#FFFFFF;}
	.st1{fill:#0062FF;}
	.st2{fill:#001840;}
</style>
<g id="Layer_2_1_">
	<g id="OBJECTS">
		<path class="st0" d="M102,0.3C147.7-4,204.1,37,204.3,101.1c0.2,56.2-45.7,102.1-102,102.1C45.7,203.1-0.3,157.2,0,100.9
			C0.4,36.2,57.3-4,102,0.3z M156.3,80.4c-0.5-0.5-1-0.9-1.5-1.3c-29.2-16.9-58.4-33.7-87.6-50.6c-3.7-2.1-3.9,0-3.9,2.7
			c0,11.1,0.1,22.3,0,33.4c-0.2,2.9,1.4,5.6,4,6.8c5.8,3.2,11.6,6.6,17.2,10c11.2,6.8,23.1,12.4,33.9,20c-17.1,10-34.2,20-51.3,29.8
			c-3,1.7-4.1,3.7-4.1,7.1c0.2,11,0.2,22,0,32.9c-0.1,4.6,1.3,4.6,4.7,2.6c28.3-16.5,56.7-32.8,85.2-49.1c2.4-1.4,3.5-3,3.5-5.9
			C156.3,106,156.3,93.1,156.3,80.4z"/>
		<path class="st1" d="M156.3,80.4c0,12.8,0,25.6,0.1,38.4c0,2.9-1,4.5-3.5,5.9c-28.4,16.3-56.8,32.7-85.2,49.1
			c-3.5,2-4.8,2-4.7-2.6c0.2-11,0.2-22,0-32.9c-0.1-3.4,1.1-5.4,4.1-7.1c17.2-9.8,34.2-19.8,51.3-29.8c2.5-1.3,5-2.6,7.4-4
			C136.1,91.8,145.8,85.3,156.3,80.4z"/>
		<path class="st2" d="M156.3,80.4c-10.5,4.9-20.2,11.4-30.4,17c-2.5,1.3-5,2.7-7.4,4c-10.8-7.6-22.6-13.2-33.9-20
			c-5.7-3.4-11.4-6.8-17.2-10c-2.6-1.2-4.2-3.9-4-6.8c0.1-11.1,0-22.3,0-33.4c0-2.7,0.2-4.9,3.9-2.7c29.2,16.9,58.4,33.8,87.6,50.6
			C155.3,79.4,155.8,79.9,156.3,80.4z"/>
	</g>
</g>
</svg>
